<?xml version="1.0" encoding="UTF-8"?>
<svg viewBox="0 0 640 480" xmlns="http://www.w3.org/2000/svg">
 <path d="m269.09 191.12c-0.53156 0.011612-1.122 0.16603-1.7947 0.47202-1.9048 0.86647-1.9146 0.9193-0.22434 8.3705 0.7478 3.2964 1.5126 7.6497 1.6986 9.6921 0.18594 2.0425 0.48459 4.2097 0.673 4.8146 0.18845 0.60496 0.49228 1.7994 0.673 2.6433 0.56207 2.6241 1.7131 8.0647 2.0511 9.7236 0.17746 0.87102 0.63318 2.1437 1.0255 2.8636 2.9459 5.4048 5.0715 22.934 2.8843 23.758-0.54346 0.20477-0.96143 0.99493-0.96143 1.7307 0 1.0656-0.44019 1.3216-2.1472 1.3216-4.191 0-7.1123 4.5007-5.1918 8.0243 0.62405 1.145 0.26486 2.0521-2.4677 5.9789l-3.2368 4.6258-0.1602 6.1992c-0.1792 6.8888 1.046 10.416 3.5894 10.416 1.3557 0 6.8578 3.324 7.7556 4.6887 0.27194 0.41339 1.2289 0.94586 2.1151 1.1643 1.9235 0.47403 2.7437 2.187 1.6665 3.4615-0.5943 0.70316-0.5336 1.171 0.22434 2.0454 1.3343 1.5395 2.8031 5.3664 2.2754 5.8845-0.23407 0.22986-0.4166-0.057159-0.4166-0.66083 0-1.833-2.1609-1.2006-5.352 1.5734l-3.0125 2.6118 1.6665 1.2587 1.6665 1.2587-1.2819 3.1783c-1.7623 4.3533-2.1888 9.956-0.80121 10.479 1.2386 0.46668 4.4547 5.6426 4.4547 7.1747 0 0.5918-0.77997 2.6248-1.6986 4.5314-2.9157 6.0518-2.9019 7.372 0 10.29l2.5318 2.5174-0.3205 7.3635c-0.17801 4.0509-0.65564 7.5698-1.0255 7.804-0.62772 0.39749-0.93793 2.2787-1.9549 11.203-0.22473 1.9721-0.042023 5.131 0.41663 7.1432 0.71655 3.1439 1.1007 3.7339 3.0446 4.5314 2.7663 1.1349 3.6456 3.4781 4.3265 11.549 0.27255 3.2303 0.68048 6.0491 0.89737 6.2621 0.21689 0.21295 0.075256 1.1495-0.3205 2.1083-0.39578 0.95886-0.83896 4.8242-0.96143 8.5907-0.17355 5.3362 0.023376 7.3138 0.86526 8.9054 0.59427 1.1234 1.3084 2.4776 1.5703 3.0209 0.26196 0.5433 1.0835 1.0863 1.8268 1.1958 1.0719 0.15784 1.4294 0.83911 1.7306 3.3356 0.51962 4.3078-0.4104 7.7637-2.4998 9.3774-1.0217 0.78915-1.7306 2.0209-1.7306 2.958 0 1.593-0.025879 1.5687-7.2108 1.5734-3.9656 0.002594-9.2532 0.20798-11.762 0.44055-3.714 0.34436-4.5543 0.24695-4.3906-0.50348 0.285-1.3062-4.8554-1.6678-5.8007-0.40909-0.54027 0.71939-3.7239 1.0244-14.165 1.3531l-13.492 0.4091-0.8012-2.6118c-0.4545-1.4895-1.608-3.2094-2.692-3.9964-1.4386-1.0443-2.1158-2.3147-2.7241-5.1293-1.1152-5.1601-0.7601-7.6001 1.1537-7.867 1.9816-0.27634 2.7715-1.8412 3.2689-6.5138 0.35548-3.3392 0.1429-4.5316-1.7306-9.0942-1.8942-4.613-3.3281-12.536-3.5253-19.416-0.1252-4.3684 1.2924-12.289 2.9804-16.646 1.9461-5.0232 1.939-5.1798 0.89735-8.1816-1.1712-3.375-1.354-6.8358-0.44868-7.804 0.32173-0.34409 0.75752-1.8906 0.9935-3.43 0.38397-2.505 0.27826-2.8007-0.9294-2.8007-1.1238 0-1.346-0.41888-1.346-2.5804 0-1.4275 0.30411-2.7971 0.673-3.0209 0.37727-0.22894 0.673 0.32193 0.673 1.2273 0 0.98401 0.65579 2.0245 1.6665 2.6748 2.1756 1.3997 3.5128 1.3424 4.4867-0.18881 0.43778-0.68829 1.1752-1.1171 1.6344-0.94403 1.2271 0.46234 2.025-1.48 2.8843-6.9544 0.86714-5.5243 1.1676-6.2364 2.4356-5.7586 1.0078 0.3797 2.0786-4.559 1.4742-6.8286-0.22716-0.85297 0.04985-1.3922 0.83325-1.6363 0.65124-0.20297 1.6792-0.89505 2.2754-1.5419 0.91017-0.98752 0.96202-1.5204 0.28842-3.2726-0.63098-1.6414-0.6451-2.6976 0.032043-4.909 0.47356-1.5465 1.1303-6.4138 1.4422-10.825 0.47533-6.7243 0.79697-8.3412 2.0511-10.007 1.4904-1.9795 1.4972-1.9988 0.32048-6.1363-0.64951-2.2838-1.6126-4.9882-2.1472-6.0104-0.75346-1.4405-0.80571-2.0749-0.19229-2.8006 0.61549-0.72818 0.55508-1.4328-0.28844-3.1782-0.5965-1.2343-1.0896-2.9052-1.0896-3.7132 0-1.6422-2.4509-5.916-3.3971-5.916-0.33553 0-2.6844-0.89905-5.2238-2.014-3.0312-1.3308-4.8656-2.5706-5.352-3.6188-0.91162-1.9646-4.7221-4.3816-6.3135-3.9964-0.94965 0.2298-1.1537-0.14624-1.1537-2.014 0-4.7919 4.5012-10.731 8.1402-10.731 1.8748 0 1.9265-0.068481 1.5383-2.8006-0.21874-1.5394-0.74188-3.6889-1.1537-4.7517-0.45419-1.1721-0.51372-2.0074-0.1282-2.1398 3.3109-1.1372 4.0006-1.9514 4.1983-4.9405 0.18538-2.8026 0.019043-3.1773-2.0831-4.7516-1.7126-1.2826-3.2969-1.7904-6.2494-1.9825-3.7932-0.2468-10.752-3.0048-9.8387-3.902 0.85791-0.84238-1.4287-2.3916-3.5253-2.3916-1.6374 0-2.3433 0.34203-2.66 1.3216-0.23614 0.73059-1.3825 1.7181-2.5638 2.2028-2.9974 1.2297-6.8803 5.032-7.2749 7.1118-0.18181 0.9581 0.013382 2.3797 0.44865 3.1782 0.63092 1.1575 0.56233 2.466-0.41661 6.4824-0.67542 2.771-1.247 5.2712-1.2499 5.5383-0.002869 0.26712 1.2164 1.2252 2.692 2.1398 1.6171 1.0024 2.66 2.1611 2.66 2.9265 0 0.69855 0.30409 1.4754 0.673 1.6993 0.85663 0.51984 0.88113 5.0245 0.032059 7.0173-0.3573 0.83856-1.3995 2.4008-2.3075 3.4615-1.3984 1.6337-2.116 1.9283-4.7111 1.8881-2.3932-0.03714-3.4025 0.28778-4.5829 1.5105-0.83101 0.86081-1.8226 1.5671-2.2113 1.5734-0.38875 0.006226-1.7412 1.0843-3.0125 2.3916-2.1839 2.2458-7.294 5.8719-7.6274 5.4125-0.72557-0.99957-2.5069-5.4793-2.8523-7.1747-0.31973-1.5699-0.12921-2.2654 0.673-2.7062 0.59346-0.32611 0.93953-0.94141 0.80121-1.3846-1.0319-3.3063-0.96944-4.2795 0.25639-4.5943 0.96619-0.24808 1.2767-0.953 1.2819-2.895 0.003754-1.4017-0.39366-3.002-0.89735-3.5559-0.50369-0.55392-1.372-2.7066-1.9229-4.7831-1.3399-5.051-1.3534-5.0737-4.1662-4.3111-2.9006 0.78639-3.4328 0.39543-3.8778-3.0524-0.187-1.4489-1.2422-5.2193-2.3395-8.3705s-1.8473-6.2757-1.6665-6.9544c0.18076-0.67874-0.27751-2.2481-1.0255-3.4929-0.94231-1.5682-1.1748-2.5614-0.73711-3.2412 1.2707-1.9735 0.73268-2.6433-2.2113-2.6433h-2.8843l-2.2433-6.7656c-3.6403-10.989-4.2093-12.335-5.1918-12.335-1.5971 0-1.7265 1.7113-0.35254 5.0349 3.5952 8.6964 4.4487 11.291 4.3906 13.563-0.034744 1.3583 0.20274 2.486 0.51277 2.486 1.223 0-0.32085 2.0204-1.8268 2.3916-0.88153 0.21724-1.6024 0.48044-1.6024 0.5979 0 0.11745 0.87192 2.388 1.9549 5.0348l1.987 4.7831-2.8202 0.6923c-2.1453 0.50835-2.8487 1.0075-3.0125 2.1398-0.22672 1.5676 0.22112 1.73 4.3585 1.5105 1.1723-0.062195 2.8696 0.35724 3.7817 0.94403 1.3036 0.8387 1.7382 0.89313 1.987 0.22028 0.78142-2.1138 1.2982 4.6688 0.6089 7.9929-0.41498 2.0012-0.90674 6.1727-1.0896 9.2516-0.33432 5.6289-0.17029 5.8438 0.67302 0.97552l0.4487-2.6118 0.9614 3.6188c0.9297 3.5117 0.88745 3.7242-0.83325 7.1747-1.2214 2.4493-1.9349 3.2667-2.3074 2.6748-0.86922-1.381-1.5719 6.2183-1.1537 12.556 0.36404 5.5173 1.5802 9.6859 3.4291 11.8 0.48665 0.55658 1.3977 3.0493 2.019 5.5383 0.62134 2.489 1.6906 5.6087 2.3716 6.9229 0.94542 1.8246 1.1481 3.3079 0.89735 6.3251-0.82997 9.9851-0.90601 9.4723 1.6344 11.895 1.2902 1.2304 3.4037 2.5762 4.679 2.9894 1.2753 0.41327 2.1781 1.094 2.019 1.5105-1.1832 3.097-1.1707 3.66 0.12819 4.3426 1.2534 0.65866 1.291 0.87082 0.41663 3.3041-1.7446 4.8553-6.0875 23.852-6.6339 29.045-0.098709 0.93799-0.85197 2.6717-1.6985 3.8391-1.3427 1.8515-1.4956 2.6444-1.1538 6.1992 0.7285 7.575 1.0531 9.1725 2.0831 10.29 1.511 1.6394 1.3834 8.6363-0.22434 11.738-0.69669 1.3439-1.6746 3.7825-2.1472 5.4125-0.47267 1.63-1.4673 3.6487-2.2113 4.4684-0.94449 1.0407-1.1325 1.6886-0.64094 2.1713 0.80478 0.79019-0.032166 5.2423-2.4356 13.059l-1.4742 4.8775 1.7947 1.5104c0.98906 0.83453 2.0723 1.6118 2.4356 1.7307 0.3812 0.12479 0.093887 1.7116-0.70505 3.7762-1.5159 3.9174-5.4337 7.9299-7.7556 7.9299-2.2638 0-4.2868 1.816-5.0315 4.5314l-0.7051 2.5489-6.2814 0.0944c-4.8079 0.087982-6.3622-0.091278-6.6339-0.78671-0.28348-0.72537-2.5655-0.89899-11.313-0.84964-6.0298 0.033997-11.365 0.3089-11.826 0.5979-0.54106 0.33914-0.83323 0.15912-0.83324-0.50348 0-1.1118-3.003-1.474-3.6535-0.44055-0.20346 0.32321-2.2166 0.6294-4.4867 0.66083-2.2701 0.031403-4.6241 0.21216-5.2559 0.40906-2.4664 0.76865-4.1404-4.7215-3.8778-12.776l0.1923-5.5383 3.6535-1.2273c2.0145-0.67169 3.9631-1.5313 4.3265-1.8881 0.61676-0.60565 3.2785-9.6912 4.1342-14.129 0.21069-1.0926-0.10075-3.247-0.673-4.8146-0.70117-1.9207-0.8161-3.2081-0.38458-3.965 0.35026-0.61429 1.0906-2.229 1.6344-3.5873 0.54382-1.3583 1.2608-2.4545 1.6024-2.4545 0.34163 0 0.78368-0.858 0.99348-1.8881 0.20981-1.0301 1.4442-2.9285 2.7561-4.2167 2.1592-2.1201 2.4036-2.6756 2.4036-5.9789 0-2.007 0.30412-3.8355 0.67301-4.0594 1.3511-0.81988 0.60816-4.7319-1.6985-8.9054-1.3013-2.3544-2.9442-5.4426-3.6214-6.8915-0.67727-1.4489-1.9632-3.3741-2.8843-4.2796-0.9211-0.90555-1.8936-2.3172-2.1472-3.1153-0.65624-2.0649-6.7138-7.6156-9.2939-8.5278-1.1966-0.42304-2.0884-1.123-1.987-1.5419 0.10136-0.41888-0.14451-0.55762-0.54481-0.31467-0.40031 0.24292-1.648 0.054626-2.7882-0.40909-1.8262-0.74277-1.9245-0.88895-0.8012-1.3217 0.9792-0.3772 1.0459-0.49945 0.22434-0.53497-0.5884-0.025421-1.6417-0.65888-2.3395-1.416-1.2451-1.3509-1.2688-1.4176 0-2.3286 1.5133-1.0866 0.22841-1.2498-1.7306-0.22028-1.1071 0.58179-1.6309 0.42038-2.9484-0.97552-0.8793-0.93158-2.057-1.6992-2.6279-1.6992-1.4709 0-1.2963-2.3774 0.28843-3.9335 0.78207-0.76791 1.1438-1.7296 0.89735-2.3601-0.23276-0.59561 0.023384-1.3436 0.54482-1.6678 1.3673-0.85007 5.1415-0.71445 5.4482 0.18881 0.14473 0.42636 0.5776 0.56708 0.99348 0.31467 0.54069-0.32809 0.42709-1.3597-0.44868-3.5873-1.8355-4.6687-2.6353-7.9178-3.0766-12.682-0.39134-4.2245-0.44694-4.3236-3.365-6.1363-1.634-1.015-3.7984-2.0637-4.8072-2.3286-1.1785-0.30945-1.9659-1.0775-2.2113-2.1083-0.67569-2.8378-6.4885-2.0267-5.8648 0.81815 0.098816 0.45068-0.44798 0.90564-1.1858 1.0384-2.5042 0.45087-8.323 2.9429-9.1337 3.902-0.44378 0.52506-0.88791 1.7596-0.99348 2.7377-0.22576 2.0918-1.4047 7.3184-2.4356 10.825-0.40088 1.3634-0.7377 3.7523-0.76915 5.2866-0.056576 2.7598-0.047005 2.7692 2.2754 2.7692 2.1444 0 2.3267 0.17078 2.2113 1.8251-0.097294 1.3955 0.1841 1.7937 1.1858 1.7937 0.71502 0 1.314 0.29862 1.314 0.66083s0.44014 0.66083 0.99349 0.66083c0.56855 0 0.99349 0.58682 0.99349 1.3531 0 0.7468-0.29929 1.1708-0.67301 0.94403-0.37386-0.22684-0.84473 0.46548-1.0576 1.5105-0.34065 1.6724-0.63445 1.8598-2.4036 1.6049-1.1036-0.15903-2.1603-0.79605-2.3716-1.3846-0.76248-2.1245-2.3502-3.392-3.2689-2.6433-0.65694 0.53537-1.3068 0.02655-2.7241-2.1398-3.9451-6.0302-25.513-29.187-36.439-39.115-1.507-1.3693-5.3921-5.3953-9.6464-10.007-2.9462-3.1935-3.7817-3.802-3.7817-2.7377 0 0.76651 1.9409 3.4378 4.3906 6.0733 2.408 2.5906 4.0111 4.8339 3.5894 4.9719-0.42172 0.13806-0.99836-0.11591-1.2819-0.56641-0.28357-0.4505-0.85983-0.70456-1.2819-0.56644-0.42421 0.13886 0.76359 1.9887 2.6279 4.1538 1.855 2.1542 3.3618 4.2479 3.365 4.6258 0.003282 0.3779 1.5238 2.3878 3.365 4.4999 3.6448 4.1809 3.8096 4.6927 2.3395 6.1362-1.2513 1.2286-1.3914 4.5541-0.51277 12.084 0.41294 3.5388 0.62101 4.0044 1.0896 2.6433 0.53547-1.5553 0.57174-1.4815 1.0896 1.007 0.30154 1.4489 0.86674 3.4283 1.2499 4.4055 0.73038 1.8628 3.8508 4.3062 4.5829 3.5873 0.23442-0.23016 0.069345-0.44055-0.35253-0.44055-1.2658 0-2.8338-2.9467-3.8458-7.2062-0.52444-2.2073-1.5559-5.1606-2.2754-6.5454-1.1951-2.3002-1.2042-2.6362-0.25638-3.9649 0.57063-0.79996 1.0537-2.4682 1.0896-3.7132 0.035921-1.245 0.27718-2.2657 0.51277-2.2657 0.23558 0 3.9697 4.0143 8.3004 8.9369 6.6707 7.5824 7.9191 9.3663 8.1402 11.549 0.14354 1.4168 0.60806 3.2135 1.0576 4.0279 0.44953 0.81436 1.0412 2.6734 1.314 4.1223 0.27277 1.4489 1.003 4.5153 1.6344 6.7971 1.1352 4.1021 1.1599 4.1484-0.25639 5.444-1.0424 0.95358-1.4422 2.1127-1.4422 4.2167 0 2.7152-0.72192 4.0853-2.8843 5.444-0.4451 0.27963-1.6528 1.5675-2.66 2.895-1.5121 1.993-1.8458 3.1504-1.9229 6.6397-0.051332 2.3242 0.22808 4.8082 0.60891 5.5069 0.38082 0.69867 0.54079 2.054 0.35253 3.0209-0.21872 1.1235 0.20809 2.7289 1.1858 4.437 0.84148 1.4701 1.3396 2.8699 1.0896 3.1153-0.72153 0.7085-7.5356-4.2266-10.127-7.332-3.0272-3.6275-4.8942-10.247-5.4482-19.416-0.22908-3.7911-0.55341-7.0911-0.70506-7.332-0.15165-0.24094-0.26931-3.0497-0.28843-6.2621-0.019123-3.2123-0.24023-7.9118-0.48072-10.447l-0.4487-4.6258-0.8332 3.6188c-2.1483 9.103-1.5111 22.789 1.5704 33.608 1.4386 5.0506 6.4715 14.494 9.6144 18l2.66 2.9265-1.6985 4.3741c-2.0591 5.3716-2.0369 5.6227 0 12.524 1.9326 6.5482 3.025 8.4111 6.1212 10.29 1.253 0.76032 2.2754 1.6256 2.2754 1.951 0 0.99316 4.8772 3.1202 9.1978 3.9964 2.4932 0.50565 3.9586 1.1206 3.7817 1.5734-0.15959 0.40836 1.6242 1.6087 3.9419 2.6748l4.1983 1.9196-0.032 3.0839c-0.046345 3.71-1.914 8.0532-4.0701 9.4404-0.86987 0.55966-1.6024 1.4636-1.6024 2.014 0 0.8511-0.9749 0.96591-6.5378 0.66083-3.5967-0.19724-7.7485-0.35791-9.2619-0.34616-1.6687 0.01297-3.1073-0.36722-3.6214-0.97549-1.925-2.2775-10.063-2.8644-10.063-0.72376 0 1.1936-4.9371 1.8259-14.261 1.8566l-7.8838 0.0315v30.241h642.53c-0.061829-22.73-0.30151-24.861-1.314-26.811-1.5798-3.0425-1.4505-8.6448 0.25641-11.203 0.93933-1.4077 1.0897-4.5464 1.0897-24.23v-22.625l-2.3716-1.1014c-1.2963-0.60693-3.5611-1.2796-5.0316-1.5105-2.4484-0.38443-2.6702-0.60297-2.692-2.486-0.041992-3.6132-1.8198-9.5706-3.7817-12.682-1.0465-1.6596-2.363-3.7545-2.9164-4.6887-1.2951-2.1866-7.1766-8.0558-8.0761-8.0558-0.37897 0-1.5286-0.63303-2.5638-1.3846-1.3834-1.0043-1.793-1.7832-1.5704-2.9265 0.16663-0.85568-0.20923-2.4852-0.80115-3.6503-0.59198-1.165-1.0576-2.3957-1.0576-2.7062 0-0.31052 1.4481-2.861 3.2368-5.6642 1.7888-2.8032 4.4081-7.3904 5.8007-10.196l2.5318-5.0978 2.2754 1.9825c2.8265 2.4368 6.0936 4.1411 6.9544 3.6188 1.205-0.7312 0.68707-2.8208-0.99347-3.902-2.785-1.7918-3.9604-3.988-3.0126-5.7271 1.0384-1.9051 2.6365-8.6078 2.2114-9.283-0.72089-1.1454 0.56757-3.2731 1.7947-2.958 1.317 0.33814 2.1703-0.93832 1.6024-2.3916-0.1897-0.48523 1.6432-2.9645 4.0701-5.5383 3.92-4.1574 4.3906-4.9193 4.3906-7.332 0-2.9101-0.86542-3.5012-2.019-1.3846-0.3949 0.72443-0.54932 1.2902-0.3205 1.2902 0.51923 0-4.0165 6.2814-6.3455 8.7796-1.4817 1.5893-2.0568 1.7854-4.0701 1.416-1.2916-0.23694-2.7163-0.73105-3.1728-1.1014-1.43-1.1603-2.7243-0.15122-2.3395 1.8251 0.31354 1.6107 0.18134 1.7671-1.1857 1.416-1.0977-0.28186-2.2707 0.19736-4.1342 1.6678-1.4269 1.1258-2.596 2.3042-2.596 2.6433 0 0.33911-1.4885 2.3954-3.333 4.5628-1.8445 2.1675-3.365 4.5377-3.365 5.2552 0 1.2855-0.025696 1.2859-1.955-0.062958l-1.955-1.3846-1.9548 2.3601c-1.7571 2.093-2.1514 2.2644-3.7497 1.6678-1.6728-0.62448-1.7947-0.94214-1.7947-4.8775 0-5.5784-0.58301-6.0579-9.7105-8.0558-1.1068-0.24222-1.6492-0.58783-1.1858-0.75522 1.7075-0.61679 0.006287-1.5105-2.8843-1.5105-2.1893 0-2.9805 0.25549-2.9805 0.97552 0 0.53879-1.1163 1.708-2.4997 2.5804-3.6597 2.3079-7.5634 6.0158-7.5634 7.2062 0 0.56705 0.54028 1.3257 1.1858 1.6993 0.83166 0.48132 0.9372 0.83484 0.38458 1.1958-0.9231 0.60284-2.2434 9.1998-2.2434 14.633 0 3.8293 0.01239 3.8313 2.2754 4.2482 1.9111 0.35205 2.2684 0.68585 2.2754 2.2028 0.011841 2.5732-0.47394 3.0213-1.8909 1.7622-1.1794-1.0481-1.2625-1.0017-1.6985 0.78671-0.25275 1.0367-0.75665 2.2512-1.1216 2.7062-0.36517 0.45502-0.87805 1.7881-1.1218 2.958-0.30029 1.4417-1.1822 2.6018-2.7561 3.5873-6.4168 4.0182-8.223 6.7664-8.0761 12.272 0.046509 1.7445-0.24976 4.3322-0.64093 5.7586-0.63159 2.303-0.51916 2.9411 0.99347 5.4754 2.0364 3.412 2.0408 3.4618 0.44867 3.8705-0.80664 0.20712-1.4017 1.1839-1.6986 2.7377-0.25317 1.325-1.0301 3.3646-1.7306 4.5314-1.5742 2.6222-2.5316 7.7096-1.4422 7.7096 0.41608 0 0.76923-0.85425 0.76923-1.9195 0-3.0511 1.2068-3.0018 2.0831 0.094391 0.87775 3.1013 3.3215 5.7901 5.2879 5.7901 2.3872 0 1.9644 1.1421-0.86536 2.3601-6.4664 2.7834-10.544 7.7419-10.544 12.839 0 2.7829 0.91132 4.2058 3.8457 5.9474 2.9852 1.7717 7.5637 5.8922 7.5634 6.8286-1.83e-4 0.36218-0.74469 1.5279-1.6665 2.5804s-1.6986 2.293-1.6986 2.7377c0 1.3928-2.666 1.5989-3.974 0.3147-1.2526-1.2299-1.1844-4.6258 0.096191-4.6258 1.5134 0-0.066589-1.639-1.6986-1.7622-2.0981-0.15832-2.1368-0.037231-0.70502 2.1084 1.2673 1.8992 0.3609 2.1388-2.0832 0.56641-0.89307-0.57452-1.9544-0.83154-2.3395-0.59787-0.38519 0.23373-0.67297 0.10034-0.67297-0.28323 0-0.38358 0.323-0.69229 0.73706-0.69229 0.52014 0 0.51276-0.32443-0.064087-1.007-0.5769-0.68253-0.61627-0.97552-0.09613-0.97552 1.3698 0 0.79608-1.992-0.73706-2.5489-2.1996-0.79892-4.4166 0.9964-4.6791 3.8391l-0.1923 2.2971-1.2819-1.951c-0.70703-1.0659-1.314-2.3052-1.314-2.7692 0-0.4639-0.37335-0.84961-0.8653-0.84961-0.50678 0-0.89734-0.70337-0.89734-1.6364 0-0.90555-0.3042-1.6363-0.67297-1.6363-0.36896 0-0.6731 0.74951-0.6731 1.6678 0 1.4884-0.16302 1.5679-1.4101 0.91257-0.76941-0.40427-1.5253-0.57925-1.6985-0.40906-0.50384 0.49469 2.8224 3.7336 3.8457 3.7447 0.76764 0.008362 0.76355 0.1351-0.032043 0.62936-0.74951 0.46564-0.77466 0.78351-0.16022 1.5105 1.52 1.7983-0.036316 1.6832-3.6856-0.2832-3.7833-2.0387-5.7169-2.1762-2.6279-0.18881 0.95111 0.61191 1.5827 1.3307 1.4101 1.6049-0.17261 0.27417 0.27313 1.0277 0.99353 1.6678 1.4348 1.2751 1.2126 2.4778-0.35254 1.8881-0.54156-0.20404-0.99347-0.041382-0.99347 0.37762 0 2.2504-6.1102-4.7461-8.8773-10.164-2.4468-4.7906-2.7515-6.7515-2.9163-18.786-0.082031-5.9766-0.4693-12.483-0.86536-14.475-0.39606-1.9922-1.2955-7.6343-2.019-12.524-0.72345-4.89-2.0588-12.102-2.9484-16.049l-1.6024-7.1747 2.0511-1.8251c1.8606-1.6343 2.1509-1.7395 2.7241-0.75522 0.35248 0.60535 0.58887 3.4005 0.51276 6.1992-0.12988 4.7728-0.034973 5.1555 1.5383 6.1677 0.92255 0.59351 1.6665 1.4808 1.6665 1.9825 0 1.1537 0.83539 1.1692 3.6855 0 3.7048-1.52 3.7332-1.6943 4.006-14.224 0.1087-4.9968 0.61408-9.8164 1.2819-12.272 1.5547-5.718 1.3944-7.4371-1.1857-12.996-1.2542-2.7021-2.491-5.8999-2.7562-7.1118-0.26508-1.2118-0.79889-2.8012-1.1857-3.5244-0.38696-0.72318-0.75934-2.0669-0.83331-2.9895-0.073914-0.92248-0.59589-2.5479-1.1537-3.6188-0.5578-1.0709-1.229-2.9857-1.5063-4.2482-0.27728-1.2624-0.89612-2.8891-1.378-3.6188-0.48193-0.72974-1.4041-2.8147-2.019-4.6258-0.61481-1.8111-1.4855-3.7363-1.9549-4.2796-0.46942-0.54334-1.4522-2.323-2.1793-3.9649-1.4755-3.3322-4.717-6.3743-7.4351-6.9544-3.75-0.80035-5.4788-1.7822-6.3135-3.6503-0.47473-1.0624-1.5394-2.0904-2.3716-2.2972-1.1429-0.2839-1.6033-1.027-1.9229-2.9894-0.29651-1.8208-0.70505-2.4757-1.346-2.2342-1.2345 0.46512-1.1609-0.26498 0.28845-2.423 0.93503-1.3923 1.4039-1.611 2.019-1.007 0.61514 0.60406 0.80118 0.51978 0.80118-0.31467 0-0.59439-0.25745-1.2222-0.57684-1.416-0.31943-0.19385-0.43442-1.0998-0.25641-2.014 0.25784-1.3243 0.71777-1.6678 2.2754-1.6678 1.1339 0 2.1117-0.42401 2.3395-1.007 0.42248-1.0812-1.9036-9.3385-3.4932-12.398-0.53274-1.0254-0.96146-2.2866-0.96146-2.8006 0-0.51398-0.50519-0.91257-1.1217-0.91257-0.61652 0-1.6914-0.53146-2.4036-1.1643-0.93536-0.83121-2.7588-1.2175-6.5057-1.3846-6.9995-0.3121-11.305 1.4123-13.749 5.5069-0.93121 1.5602-1.7783 3.3955-1.8908 4.0594-0.11261 0.66388-0.53711 1.793-0.92938 2.5174-0.39777 0.73453-0.56363 3.137-0.38458 5.4125 0.31061 3.9478 0.37018 4.0721 2.4036 4.4999 2.9676 0.62436 3.1301 0.81836 2.4356 2.6118-0.3519 0.90881-0.36591 1.7484-0.032043 1.951 0.3233 0.1962 0.71982 0.019501 0.8653-0.40909 0.37625-1.1083 1.8588-0.057892 1.8588 1.3217 0 0.92474-0.50427 1.1449-2.6279 1.0384-2.5096-0.12582-2.658-0.043884-2.8523 1.9195-0.18182 1.8376-0.48221 2.1032-2.5638 2.2972-1.2896 0.12015-2.7101 0.53558-3.1727 0.91257-0.62936 0.51288-0.8653 0.3222-0.8653-0.72378 0-0.76877-0.30417-1.3846-0.673-1.3846-0.97742 0-0.7984-3.7956 0.19226-4.1223 0.65598-0.21628 0.6087-0.65576-0.1282-2.014-1.1875-2.189-0.61093-15.96 0.83325-20.076 0.83649-2.3839 0.82672-3.1417-0.032043-5.8845-0.54208-1.7314-1.0992-3.5407-1.2498-4.0279-0.15066-0.48717-0.86649-1.0382-1.6024-1.2272-0.7359-0.18896-1.346-0.75633-1.346-1.2272 0-0.47092-0.31955-0.94373-0.70505-1.0699-0.42532-0.13921-0.78796-3.7368-0.92941-9.1257-0.12817-4.8845-0.28082-9.538-0.32046-10.353-0.045959-0.94524-0.50116-1.479-1.2499-1.479-1.0775-3.1e-5 -1.1442 0.83888-0.92941 10.227 0.14792 6.4638-0.00705 10.523-0.44864 11.045-0.42593 0.50392-0.49304 1.2141-0.1282 1.7937 0.39471 0.62709 0.24771 1.3214-0.44867 2.0769-0.90909 0.98634-0.97897 2.5672-0.57687 11.234 0.25684 5.536 0.46582 11.233 0.48074 12.682 0.031189 3.0337-1.8624 11.416-2.8523 12.587-0.3862 0.45694-0.4791 2.1737-0.22434 4.0594 0.32071 2.3736 0.15402 3.7044-0.57687 4.8461-0.55289 0.86362-1.2052 2.6674-1.4421 3.9964-0.31778 1.7825-1.0028 2.7483-2.5959 3.6818-1.3306 0.77963-2.8695 2.6419-4.006 4.8775-1.5871 3.1222-1.8267 4.4214-1.8267 9.346 0 6.1529 0.92172 8.9359 4.1983 12.398 1.8018 1.904 5.4951 2.9019 8.2043 2.2342 1.5441-0.38055 1.6665-0.23404 1.6665 1.7937 0 3.0997-0.81296 3.5493-1.7626 0.97549-0.4422-1.1984-0.84201-1.7391-0.86533-1.1958-0.023254 0.54334 0.78491 2.6837 1.7947 4.7516 1.9703 4.0349 5.4341 7.1118 8.012 7.1118h1.5703l-1.6024 2.486c-0.8819 1.3717-2.574 4.3846-3.7496 6.6712-2.0068 3.9034-2.0726 4.2135-1.0255 5.3496 0.6134 0.6655 0.93164 1.4966 0.70505 1.8566-0.22659 0.35998-0.086517 0.84241 0.28845 1.0699 1.1685 0.70904 0.83661 12.631-0.41663 15.01-1.6938 3.216-1.9851 7.1414-1.2178 16.615 0.3269 4.0366 0.87381 6.4604 1.6986 7.6152 1.0292 1.4412 1.2054 3.2962 1.314 12.21 0.11954 9.8197 0.017303 10.824-1.6665 15.702-1.7144 4.9678-1.7389 5.3942-0.92938 9.6921 0.82855 4.3989 0.91232 4.5434 3.8778 6.0733 2.9845 1.5397 3.0283 1.6396 2.9805 4.7831-0.10925 7.1734-1.394 8.4347-8.1723 7.8984-2.4749-0.1958-6.7155-0.36133-9.39-0.37759-4.3559-0.026489-4.8392-0.17658-4.8392-1.3217 0-1.8922-1.2546-2.3112-1.6986-0.56644-0.367 1.4423-0.63483 1.5248-5.8968 1.3217-3.0275-0.11688-5.7708-0.51373-6.1212-0.84964-0.88547-0.84869-8.6673-0.74115-9.5503 0.12588-0.51602 0.50668-1.1438 0.1188-2.2113-1.3531-1.8973-2.6163-2.8957-13.011-1.1858-12.367 0.60483 0.22788 1.5507-0.36655 2.4356-1.5419 0.7962-1.0574 1.8934-1.9196 2.4357-1.9196s0.99347-0.29864 0.99347-0.66083c0-0.36218 0.43463-0.66083 0.96146-0.66083 2.1823 0 1.9544-11.694-0.41666-21.084-0.41159-1.63-0.72086-3.5551-0.67297-4.2796 0.047852-0.72443 0.2558-4.8037 0.44867-9.0627 0.31427-6.94 0.53674-8.0383 2.1472-10.542 0.98834-1.5364 2.1973-4.1144 2.692-5.7272 0.94739-3.0881 0.35565-6.0514-2.3395-11.8-0.98032-2.0911-0.9567-2.2955 0.25638-3.1782 0.71097-0.5174 2.1024-1.0879 3.1086-1.2902 3.1539-0.634 5.6977-3.622 6.2173-7.332 0.3916-2.7959 0.73752-3.4078 2.3395-4.0594 2.0973-0.85303 2.9871-3.7896 1.955-6.4824-0.39658-1.0346-0.26483-2.1046 0.4166-3.3986 0.55023-1.0447 1.6837-3.7791 2.5318-6.0733 1.3942-3.7716 1.4848-4.8218 1.0255-10.762-0.27933-3.6134-1.0742-8.6542-1.7626-11.203-0.81686-3.0241-1.1488-5.9954-0.96146-8.5593 0.21301-2.9147-0.10788-5.0368-1.2178-8.2131-0.82272-2.3544-1.5568-4.9816-1.6665-5.853-0.10971-0.87146-0.97229-2.1994-1.8908-2.958-0.91849-0.75851-2.2852-2.579-3.0446-4.0279-0.75931-1.4489-1.9099-3.2326-2.5638-3.965-1.6528-1.851-5.2512-4.2482-6.3455-4.2482-0.50113 0-1.2022-0.664-1.5704-1.479-0.51599-1.1422-1.1398-1.4742-2.7561-1.3531-1.2104 0.090637-2.4702-0.25232-2.9484-0.81818-0.45572-0.53915-1.3905-0.97549-2.0831-0.97549-2.4929 0-3.9419-2.3264-3.9419-6.3565 0-3.4006 0.1951-3.9066 2.1472-5.5069 1.7017-1.3949 2.1472-2.2624 2.1472-4.1852v-2.423l2.8843 0.4091c1.5863 0.23358 2.8843 0.28442 2.8843 0.094391 0-0.82089-2.9835-8.133-3.6856-9.0313-0.42456-0.54334-1.1624-2.2063-1.6344-3.6818-0.47195-1.4754-1.787-3.7537-2.9484-5.0978-1.7915-2.0733-2.6515-2.5289-5.6084-2.8636-3.1377-0.35515-3.5022-0.5567-3.6856-2.1084-0.15591-1.3198-0.63382-1.7625-2.019-1.9195-1.712-0.19403-1.7941-0.083954-1.4422 2.0454 0.36408 2.2029 0.33624 2.2546-2.3395 2.6748-1.503 0.23602-3.404 1.0755-4.1983 1.8881-2.0233 2.07-3.9244 6.3664-3.9419 8.874-0.008087 1.1638-0.61673 3.5958-1.346 5.4125-1.5868 3.9529-1.2178 5.3181 1.4101 5.3181 1.5084 0 1.9229 0.30478 1.9229 1.3531 0 0.74176 0.70502 2.003 1.5703 2.8007 2.0234 1.8652 2.9268 8.64 1.5062 11.328-0.5062 0.9581-1.0965 1.4469-1.314 1.1014-0.21744-0.34546-0.97205-0.75751-1.6985-0.94403-1.2399-0.31836-1.286-0.25107-0.3205 1.1958 1.59 2.3827 0.36005 3.581-5.7045 5.6013-2.9957 0.99799-5.4217 1.7592-5.4161 1.6993 0.005585-0.059906 0.42984-1.2888 0.96146-2.7377 1.5006-4.09 1.2885-6.0713-0.96146-8.4334-1.1025-1.1576-1.7107-2.2079-1.346-2.3286 0.91519-0.30295 0.832-2.0769-0.09613-2.0769-0.51901 0-0.48144-0.29214 0.09613-0.97549 0.56677-0.6705 0.69861-2.132 0.41663-4.4684-0.82233-6.8143-0.58795-14.087 0.54483-16.237 0.7308-1.3876 0.95801-2.8399 0.673-4.4999-0.71005-4.1361-1.0284-4.7831-2.3716-4.7831-0.71292 0-1.2819-0.43216-1.2819-0.97549 0-0.54335-0.32001-0.97551-0.70505-0.97551s-0.63675-0.39685-0.57687-0.84964c0.059845-0.45277 0.043732-5.1676 0-10.51-0.077087-9.4246-0.098724-9.7236-1.4742-9.7236-1.3928 0-1.4313 0.15173-1.0896 9.3145 0.33112 8.8796-0.12653 12.43-1.6345 12.43-0.30966 0-0.5448-0.93469-0.5448-2.0454 0-1.8146-0.20148-1.9809-1.8588-1.7937-1.8409 0.20799-1.8572 0.21346-1.6345 4.8146 0.12274 2.5355 0.18005 6.0393 0.1282 7.804-0.093262 3.1744-0.076263 3.2322 1.8268 2.958l1.9229-0.2832 0.1923 6.5453c0.10614 3.9753-0.09314 6.6998-0.51276 6.9544-0.38025 0.23074-0.82327 1.8926-0.99347 3.6817-0.17026 1.7892-0.65979 3.3627-1.0576 3.493-0.39783 0.13019-0.70508 1.694-0.70508 3.4929s-0.4429 4.0818-0.96143 5.0664c-0.51852 0.98456-2.1559 5.451-3.6535 9.9124-1.4975 4.4614-4.0958 10.581-5.7686 13.594-3.2827 5.9132-3.7213 8.6115-2.0831 12.461 0.70334 1.6529 1.565 2.4155 3.4932 3.0209 1.4191 0.44559 3.4333 1.5813 4.4546 2.5174l1.8588 1.6993-1.6985 1.5419c-1.5305 1.3934-2.2031 2.8006-1.346 2.8006 0.18445 0 0.92871-0.5972 1.6665-1.3217 2.3927-2.3494 3.6857-1.7223 3.8137 1.8566 0.20062 5.6067 4.3612 10.018 8.4927 8.9998l1.7306-0.4406-1.2499 3.8391c-0.69366 2.1192-2.0626 7.4224-3.0446 11.769-0.98196 4.3466-2.063 8.6292-2.4036 9.5348-0.34064 0.90555-0.88824 3.428-1.2178 5.6013-0.64108 4.2273-1.5823 7.167-3.4612 10.856-2.1104 4.1442-2.8345 9.4471-1.987 14.381 0.53717 3.1269 0.55102 5.32 0.064087 7.395-0.37967 1.618-0.69397 4.8518-0.70508 7.2062-0.025726 5.4799-1.0675 9.1027-3.2048 11.328-1.2608 1.313-1.5616 2.179-1.2499 3.3985 0.23093 0.90335-0.055115 3.7716-0.60892 6.3565-0.55374 2.585-0.99347 6.428-0.99347 8.5593 0 3.5213 0.19842 4.0616 2.1793 5.8845 1.1989 1.1033 2.4153 2.0123 2.692 2.014 1.1155 0.006744 0.36438 1.5631-1.6024 3.3671-1.553 1.4244-2.7192 1.9195-4.647 1.9195-1.7811 0-3.0178 0.44205-3.9419 1.4161l-1.346 1.416-1.955-2.0769c-1.3574-1.4269-2.599-2.0769-3.9739-2.0769-2.4493 0-8.1213-5.1309-9.326-8.4334-0.72842-1.997-0.65488-2.3559 1.1217-4.3426l1.9549-2.1398-0.5448-6.86c-0.30014-3.777-0.42346-7.2442-0.25638-7.6782 0.16711-0.43405-0.13281-1.597-0.673-2.6118-2.9345-5.5132-4.0607-20.292-1.7626-23.16 1.6197-2.0218 1.6991-7.9745 0.19229-13.594-0.58267-2.1733-1.0241-4.8608-0.9935-5.9474 0.03067-1.0867-0.4166-3.3821-0.99347-5.0978-1.4553-4.3279-1.1481-5.233 1.8908-5.4125 1.3838-0.081726 3.0754-0.62817 3.7496-1.2273 0.67422-0.59909 1.8334-1.1014 2.5638-1.1014 1.9428 0 3.357-1.321 4.1662-3.9335 1.3848-4.4707-0.67792-25.568-3.3971-34.804-0.74799-2.5406-0.711-2.9726 0.32044-3.7132 1.799-1.2916 1.395-4.412-1.1857-9.1886-1.2911-2.3897-2.3395-4.6875-2.3395-5.0978 0-0.41028-1.0201-1.9887-2.2754-3.493-1.2553-1.5042-2.7402-3.8115-3.301-5.1293-1.2543-2.9476-5.643-6.1444-9.1978-6.7341-1.4598-0.24219-2.8364-0.73917-3.0446-1.0699-0.20816-0.33069-0.94479-0.5979-1.6345-0.5979-0.68964 0-1.69-0.43216-2.2434-0.97549-0.55331-0.54336-1.3354-0.97552-1.7306-0.97552-1.6974 0-0.53-1.2238 1.5383-1.6049 2.5114-0.46262 5.4496 0.36557 5.993 1.6993 0.22952 0.56335 0.38217 0.59949 0.4166 0.094391 0.029144-0.42691-0.4472-1.2573-1.0576-1.8566-0.86194-0.84634-2.1084-1.0515-5.5443-0.8811-4.895 0.24277-4.5237 0.64804-4.1983-4.7202 0.12567-2.0735 1.4564-2.8114 1.4742-0.81818 0.008057 0.90036 0.12515 0.95181 0.57687 0.25174 0.31802-0.49286 0.45331-1.3948 0.28842-2.014-0.36749-1.38 0.68802-2.2649 3.974-3.3041 2.3322-0.73758 2.5318-0.97818 2.5318-3.3356 0-3.1169-1.6262-10.09-3.1408-13.563-0.61719-1.4152-1.0579-3.378-0.99347-4.374 0.076141-1.1775-0.21548-1.8251-0.83325-1.8251-0.52255 0-2.5775-0.73434-4.5508-1.6363-5.7837-2.6437-12.231-2.0888-18.428 1.5419-2.9117 1.7061-2.9847 1.8316-2.66 4.374 0.18506 1.4489 0.5231 3.6018 0.76916 4.7517 0.54813 2.5615-0.89444 7.4075-1.7947 6.0418-1.4215-2.1564-3.962-11.456-3.5894-13.122 0.27191-1.2157 0.086212-1.89-0.57687-2.1398-0.93201-0.35118-4.5231-13.431-5.5443-20.202-0.24579-1.63-0.77502-3.4112-1.1858-3.9335-0.56937-0.72401-0.54303-0.81763 0.096161-0.44055 0.58402 0.34448 0.83325-0.015686 0.83325-1.1958 0-1.8206-0.93424-3.7914-2.8843-6.0418-0.67123-0.77466-1.3752-2.4327-1.5703-3.6503-0.1951-1.2175-0.6373-2.3515-0.96146-2.5489-0.32413-0.19742-0.5759-1.3918-0.54483-2.6433 0.031067-1.2515-0.3717-3.3266-0.92938-4.5943-0.55768-1.2678-1.2405-3.7264-1.5063-5.4754-0.40634-2.6738-1.3857-3.9683-2.9805-3.9335zm-110.44 32.632c0.087143-0.036163 0.31007 0.12404 0.73711 0.47203 0.56178 0.45781 1.0255 0.96462 1.0255 1.1014 0 0.73784-1.2737 0.073517-1.6344-0.84962-0.17662-0.45195-0.21533-0.68759-0.12819-0.72377zm212.19 13.154c0.11624-0.01358 0.16022 0.00795 0.16022 0.094406 0 0.17285 0.19275 0.78018 0.4166 1.3531 0.22394 0.57297 0.11255 1.0384-0.25638 1.0384-0.93829 0-1.5799-1.8561-0.80118-2.3286 0.17639-0.10702 0.36447-0.14375 0.48074-0.15733zm89.83 8.4334c0.43936-0.005524 0.98987 0.26714 1.2179 0.62936 0.51462 0.81764 0.29501 0.81764-0.99353 0-0.60446-0.38361-0.70428-0.62331-0.22434-0.62936zm-299.58 3.9335c0.36891 0 0.67302 0.59721 0.67302 1.3216 0 0.72444-0.30411 1.3216-0.67302 1.3216-0.3689 0-0.673-0.59721-0.673-1.3216 0-0.72444 0.30411-1.3216 0.673-1.3216zm302.21 1.6678c0.028992-0.007645 0.05835-0.01033 0.096161 0 0.18161 0.049515 0.47556 0.28899 0.92941 0.69229 0.96045 0.85344 1.0838 1.3383 0.51276 2.014-1.1549 1.3664-1.6073 1.092-1.6986-1.1014-0.043823-1.0538-0.042542-1.5512 0.16022-1.6049zm-299.84 11.612c0.026535-0.004333 0.065079-0.008514 0.096161 0 0.18639 0.051117 0.42987 0.36011 0.6089 0.81818 0.23871 0.61081 0.28059 1.2664 0.096146 1.4475-0.18445 0.18112-0.53046-0.1759-0.76915-0.78671-0.23871-0.61081-0.28059-1.2664-0.096146-1.4475 0.023056-0.022675 0.037582-0.027161 0.064087-0.031494zm123.38 1.0385c0.21258-0.055603 1.7072 2.3556 3.6535 5.916 2.2243 4.069 4.0701 7.7191 4.0701 8.0873 0 0.74149-0.85867 0.74033-3.333 0.062927-1.4681-0.40192-1.7946-1.1065-2.8523-6.3565-0.65414-3.2469-1.3373-6.6153-1.5383-7.5208-0.025116-0.11319-0.030365-0.18085 0-0.18881zm-129.44 2.7062c-0.11-0.062134-0.19231 0.46524-0.19231 1.416 0 1.2678 0.15178 1.7982 0.3205 1.1643 0.1687-0.63388 0.1687-1.6948 0-2.3286-0.042175-0.15848-0.091537-0.23102-0.12819-0.25174zm125.37 0.4406c0.34866 0.032928 0.55597 0.97122 1.0576 3.3356 0.45587 2.1486 0.88406 5.3951 0.92941 7.2062l0.0641 3.2727-2.4998 0.2203c-2.3356 0.18979-2.813-0.073669-2.5959-1.3846 0.046265-0.27924-0.70142-0.30078-1.6665-0.062958-1.6402 0.4042-1.7518 0.29746-1.4101-1.479 0.20108-1.0453 0.57321-3.3011 0.80121-5.0034 0.32501-2.4265 0.73596-3.1852 1.8908-3.5244 0.81021-0.23792 1.9583-1.042 2.5638-1.7937 0.39978-0.49631 0.65607-0.80643 0.8653-0.78671zm-125.6 7.867c0.32286-0.014862 0.73262 0.60187 1.2178 2.0454 0.43574 1.2965 1.2356 2.5076 1.7626 2.7062 0.79172 0.29831 0.77913 0.52136-0.16025 1.1958-1.0301 0.73959-1.0633 1.2792-0.28844 5.7271 0.47041 2.7003 0.7256 5.466 0.57687 6.1677-0.25211 1.1896-0.32785 1.1934-1.1217-0.22028-0.46829-0.83392-1.271-3.5214-1.7947-5.9474-1.2808-5.9344-1.1609-11.63-0.19229-11.675zm14.326 0.6608c0.53384-0.002594 0.99322 0.87018 1.2499 2.5174 0.18144 1.1645 0.49461 3.1836 0.70506 4.4999 0.28865 1.8055 0.14909 2.5029-0.64096 2.8006-1.1661 0.43936-1.3426 0.13684-2.3395-4.374-0.48814-2.2088-0.46733-3.5522 0.032043-4.4684 0.35052-0.64313 0.6732-0.97394 0.99348-0.97552zm198.63 1.2587c0.032288-0.011169 0.062439-0.010071 0.09613 0 0.16174 0.048462 0.36807 0.32617 0.64099 0.81815 0.51694 0.93192 0.56018 2.0921 0.16022 3.4615-0.48084 1.6462-0.35706 2.1749 0.54483 2.6748 1.55 0.85904 0.245 1.801-2.0831 1.5105-2.0106-0.25088-2.0122-0.24295-0.19229-6.4195 0.39847-1.3523 0.6073-1.9672 0.83325-2.0454zm46.181 2.4545c0.34198 0 1.065 0.20889 1.9869 0.59787 0.88455 0.3732 0.98389 0.57404 0.3205 0.5979-0.55331 0.019928-1.4336-0.24676-1.987-0.5979-0.61301-0.38901-0.66244-0.59787-0.32046-0.59787zm53.168 5.4439c0.34476 0.010162 0.57687 0.23773 0.57687 0.66083 0 0.53247-0.54147 1.1165-1.2178 1.2902-0.76193 0.19562-1.2499-0.023987-1.2499-0.5979 0-0.5094 0.13416-0.94403 0.28845-0.94403 0.15433 0 0.69577-0.14948 1.2178-0.34616 0.13828-0.052063 0.26965-0.066315 0.38455-0.062927zm27.786 1.0699c1.0145-0.005554 1.8588 0.29862 1.8588 0.66083 0 0.8327-1.3798 0.8327-2.692 0-0.784-0.4975-0.60406-0.65295 0.83325-0.66083zm-31.503 0.9755c0.61365 0.051666 1.2021 1.4001 0.67304 1.9196-0.71973 0.70666-1.5384 0.43484-1.5383-0.53497 0-0.52194 0.27862-1.1212 0.60889-1.3217 0.086334-0.052338 0.16873-0.070282 0.25638-0.062927zm-293.43 1.6678c0.41905-0.04483 0.80119 0.55591 0.80119 1.6049 0 0.88416-0.24991 1.7841-0.57684 1.9825-0.68582 0.41617-1.3474-1.5494-0.92941-2.7692 0.18312-0.53436 0.45364-0.79126 0.70506-0.81815zm193.63 1.5104c0.23871-0.076294 0.39236 0.41791 0.67297 1.6678 0.6091 2.7123-0.66614 7.5189-2.4036 9.0627-0.69501 0.61758-1.2819 1.9249-1.2819 2.895 0 0.97015-0.20407 1.9675-0.48074 2.2342-0.27667 0.26678-0.8096 2.6229-1.1858 5.2237l-0.705 4.7202-1.1537-1.6678c-1.573-2.2977-2.5019-7.6305-1.8908-10.825 0.30081-1.5724 1.8449-4.395 3.8137-6.9859 1.8142-2.3873 3.6275-4.9097 4.038-5.6013 0.25363-0.42725 0.43362-0.67798 0.57687-0.72378zm272.38 9.6921c-0.16272 0-0.47711 0.29858-0.70508 0.66083-0.22803 0.36221-0.10223 0.66083 0.28845 0.66083 0.39062 0 0.70508-0.29862 0.70508-0.66083 0-0.36224-0.12573-0.66083-0.28845-0.66083zm-628.53 1.4475c0.61806-0.22922 2.3716 1.13 2.3716 1.9196 0 0.31787-0.28518 0.56641-0.60891 0.56641-0.85769 0-2.3459-1.9447-1.8588-2.423 0.030448-0.029877 0.054937-0.047638 0.096145-0.062927zm615.74 11.706c0.59692 0 0.90106 0.29862 0.67297 0.66083-0.22797 0.36224-0.5321 0.66083-0.67297 0.66083s-0.44501-0.29858-0.67297-0.66083c-0.22809-0.36221 0.076111-0.66083 0.67297-0.66083zm-29.612 13.185c0.59857 0 1.0897 0.43216 1.0897 0.97552 0 0.54334-0.11706 1.007-0.25635 1.007-0.13934 0-0.59839-0.46365-1.0576-1.007-0.6839-0.80908-0.66693-0.97552 0.2243-0.97552zm-369.35 2.7692c0.24156-0.040314 0.25485 0.31122 0.1282 1.1643-0.12762 0.85983-0.62851 1.676-1.0896 1.8251-1.2067 0.39023-1.0413-1.486 0.22435-2.5174 0.35049-0.28561 0.59216-0.44788 0.73709-0.47202zm383.17 1.5104c0.09552 0.011383 0.19348 0.032623 0.25641 0.094421 0.2395 0.23517 0.090393 0.83554-0.3205 1.3217-0.84662 1.0016-1.9228 1.1818-1.9228 0.31467 0-0.7511 1.3181-1.8103 1.9869-1.7307zm-282.54 2.2972c2.228 0.018921 2.9693 1.1401 3.5894 5.3496 0.3411 2.3153 0.83273 5.1793 1.0576 6.3565 0.22492 1.1772 0.12973 2.1398-0.19229 2.1398-0.88495 0-2.1755-2.3143-2.5959-4.6572-0.20584-1.1475-0.76117-2.8854-1.2499-3.8391-0.48871-0.95367-1.1027-2.5283-1.346-3.5244-0.35617-1.4587-0.21854-1.8332 0.73709-1.8251zm97.426 1.3217c0.95157 0 1.4346 0.61154 1.7626 2.3286 0.24545 1.2846 0.30435 2.4703 0.1282 2.6433-0.45752 0.44928-1.6585-1.0886-2.4677-3.1782-0.60553-1.5638-0.55435-1.7937 0.57687-1.7937zm192.58 1.6363c0.36749-0.056641 0.60895 0.030182 0.60895 0.25174 0 0.88666-2.4407 3.3935-2.8843 2.958-0.58783-0.57715 0.64636-2.6585 1.8588-3.1153 0.14087-0.053101 0.29413-0.075531 0.41656-0.094391zm-108.74 3.6188c0.39066 0 0.70505 0.29862 0.70505 0.66083s-0.15778 0.66083-0.3205 0.66083c-0.16266 0-0.47705-0.29862-0.70505-0.66083-0.22803-0.36221-0.07016-0.66083 0.3205-0.66083zm3.5573 4.2167c0.51001-0.090881 1.138 0.87625 1.5704 2.7062 0.38568 1.6325 0.6294 2.958 0.57684 2.958-0.74365 0-3.0534-3.4545-2.8843-4.3111 0.16687-0.84515 0.43109-1.2986 0.73709-1.3531zm-84.991 2.0139c0.12616-0.021912 0.23373-0.009155 0.35251 0.062927 0.42188 0.25601 0.46167 0.71408 0.064087 1.1958-0.34711 0.42053-0.76236 1.3524-0.92938 2.0769-0.26703 1.158-0.36966 1.1883-0.80118 0.22028-0.51477-1.1548 0.43094-3.4025 1.314-3.5559zm89.061 7.7411c0.13824 0.017212 0.33618 0.14133 0.57684 0.37762 0.43652 0.42862 0.63928 0.94574 0.44867 1.1328-0.44769 0.43954-1.2498-0.34818-1.2498-1.2272 0-0.20633 0.085999-0.30045 0.2243-0.28323zm-182.93 0.8182c0.12225-0.00473 0.24234 0.027527 0.35254 0.094391 0.32709 0.19849 0.57687 0.90912 0.57687 1.5734 0 1.5349-1.9184 2.2991-2.4357 0.97552-0.38968-0.99722 0.65051-2.6102 1.5063-2.6433zm93.452 3.6503c1.1935 0 1.4412 1.3028 0.73712 3.8706-0.76245 2.7803-2.692 5.0647-2.692 3.1782 0-0.56632 0.30411-1.2237 0.67297-1.4475 0.36893-0.22385 0.67304-1.562 0.67304-2.9894 0-1.4275 0.26181-2.6118 0.60889-2.6118zm94.798 9.4719c0.20825-0.046906 0.61145 0.22272 1.2819 0.8811 1.2155 1.1935 1.3003 1.5986 0.57684 2.4545-1.3559 1.6042-2.9498 1.326-2.4677-0.44055 0.22247-0.815 0.41162-1.9212 0.41669-2.4545 0.002502-0.26828 0.067261-0.41242 0.19226-0.44055zm-217.03 3.9335c0.14868 0.14597 0.8414 3.884 1.5383 8.2761 0.86963 5.4806 1.7097 8.5705 2.66 9.8809 0.76157 1.0501 1.3781 2.1933 1.3781 2.5489 0 0.35562 0.73978 2.8396 1.6344 5.5069 1.6113 4.8037 3.7176 15.643 3.7176 19.038 0 0.96887 0.81854 3.1975 1.7947 4.9719 1.3634 2.4785 1.7732 4.2323 1.8268 7.5208 0.067383 4.1394 0.14624 4.2999 2.2113 5.2551 2.4852 1.1496 2.979 2.4146 2.4998 6.5454-0.63135 5.4421-0.90182 6.1297-2.1472 5.6642-0.88733-0.33164-0.96991-0.26483-0.35254 0.34616 0.6167 0.61023 0.3609 1.2191-1.1217 2.6747-1.2621 1.2393-2.5131 1.8548-3.6535 1.7622-1.8732-0.15222-1.8312-0.14548-1.9549-1.2902-0.1106-1.0235-2.7668-1.7001-7.9479-1.9825-3.9537-0.21548-4.222-0.12784-4.4226 1.2587-0.22403 1.549-2.0611 2.0902-2.2434 0.66083-0.057739-0.45276-0.21606-1.5489-0.35254-2.4545-0.13641-0.90555-0.40836-2.6971-0.57684-3.9649-0.16852-1.2678-0.55035-3.9054-0.86533-5.8531-0.70355-4.3509-0.29504-6.7232 1.2179-7.1117 0.96048-0.24664 1.2284-1.5057 1.6024-7.5523 0.24606-3.978 0.29062-7.4636 0.096161-7.7726-0.68582-1.0896-0.87152-12.874-0.22436-14.507 0.36066-0.90958 0.90549-5.0546 1.2178-9.2201 0.68005-9.0696 2.0905-20.573 2.4677-20.202zm-109.19 0.7552l0.032 2.8321c0.032211 2.6299 1.757 15.327 3.4292 25.174 1.9374 11.41 2.6028 16.741 2.5318 20.832-0.074387 4.2858 0.011398 4.5211 2.2113 6.4509 1.2594 1.1048 3.1098 3.231 4.1342 4.7202 1.7566 2.5538 1.8795 3.1535 1.9229 10.227 0.067902 11.062 0.25629 10.221-2.4356 9.9124-1.2782-0.14652-2.674-0.68146-3.1087-1.1958-0.67748-0.80151-0.97479-0.76752-2.0511 0.18881-1.5523 1.3794-7.421 1.9231-10.8 1.007-1.4635-0.39679-2.4997-0.41867-2.4997-0.062927 0 0.33301-0.91234 0.5979-2.019 0.5979s-2.019-0.29858-2.019-0.66083c0-0.36218-1.6566-0.66083-3.6855-0.66083-2.029 0-3.6855 0.29864-3.6855 0.66083 0 0.36218-0.98975 0.66083-2.2113 0.66083h-2.2434l-1.2178-5.2552c-0.66939-2.8958-1.0226-6.1506-0.80119-7.2376 0.65672-3.2241 2.3687-5.2866 4.4226-5.2866 2.5354 0 4.6055-2.2855 3.5573-3.9335-0.60417-0.94995-0.58984-1.392 0.096146-1.951 0.50418-0.41086 1.0869-2.9141 1.346-5.8216 0.24986-2.8041 0.89607-6.2608 1.4101-7.7096 0.51401-1.4489 1.8612-5.8965 3.0125-9.8809 2.766-9.5729 8.6434-28.376 9.7746-31.279l0.8974-2.3286zm203.22 9.2201l0.032 9.4089c0.040985 9.0316 0.11475 9.5433 1.987 13.185 2.5883 5.0346 4.1622 17.888 2.5638 20.958-1.4901 2.8617-2.0202 5.9686-1.1217 6.5138 0.50095 0.30399 0.21625 0.72919-0.80121 1.2273-2.5125 1.23-2.372 2.9416 0.35251 4.0594 1.3077 0.5365 3.1681 0.97549 4.1021 0.97549 1.9795 0 1.9661 0.049286 0.73712 4.3111-0.51511 1.7863-1.1122 5.0252-1.346 7.1747-0.23383 2.1495-0.75085 4.2751-1.1537 4.7517-0.73672 0.87161-1.469 1.1151-1.987 0.62936-0.29575-0.27731-6.62-0.76169-19.485-1.479l-7.8197-0.4406-0.9614-3.3671c-0.53046-1.8479-0.83414-4.4424-0.673-5.7586 0.28317-2.3139 0.3887-2.3879 3.5573-2.8006 2.156-0.28082 3.5154-0.85376 3.9419-1.6364 0.68665-1.2597 0.29297-3.819-0.80118-5.1922-0.44-0.55216-0.40884-0.81815 0.09613-0.81815 1.0598 0 0.93591-3.3468-0.2243-6.0733-1.1352-2.6677-0.82254-4.3014 2.5959-13.028 1.2061-3.0788 2.6033-7.0628 3.0766-8.8739 0.50702-1.9402 2.1117-4.9143 3.9099-7.2376 1.6786-2.1688 4.464-6.7815 6.2173-10.227l3.2048-6.2621zm89.766 7.4893l1.5063 5.381c0.81516 2.9664 3.0802 9.1887 5.0636 13.814 1.9834 4.6257 3.83 9.8488 4.0701 11.612 0.5199 3.8176 1.9281 8.1535 3.8458 11.769 1.0218 1.9264 1.4174 3.912 1.4422 7.3635 0.018585 2.5959 0.23612 4.9206 0.51276 5.1922 0.27667 0.27167 0.51276 1.0852 0.51276 1.7937 0 1.0029-0.19653 1.1375-0.89731 0.56644-0.49509-0.40344-1.0801-0.54425-1.314-0.3147-0.23386 0.22958-0.92554 0.001312-1.5063-0.47202-0.87994-0.71704-1.2171-0.6615-2.1472 0.25174-1.041 1.0222-0.95844 1.1014 1.314 1.1014 3.5788 0 4.4001 0.46945 4.038 2.3286-0.17276 0.88742-0.58054 1.6049-0.89734 1.6049-0.31866 0-0.29062 0.67718 0.032043 1.5105 0.54336 1.4034 0.41162 1.4933-1.6344 1.2587-2.0727-0.23761-2.1567-0.15253-1.8268 1.5419 0.26108 1.3413 0.088379 1.7161-0.60889 1.479-0.51337-0.1745-0.89456-0.95239-0.86533-1.7307 0.054901-1.4584-0.69153-1.8774-1.378-0.78668-0.33188 0.52719-3.0011 0.42191-3.333-0.12588-2.6832-4.4295-3.8025-4.8902-2.0831-0.84964 0.97449 2.29 0.96658 2.4251-0.12817 1.9825-2.7965-1.1308-3.7581-1.1978-3.2048-0.25174 0.29822 0.50983 1.016 1.443 1.5704 2.0769 0.55438 0.63391 0.86764 1.1643 0.70502 1.1643-0.1626 0-0.8284-0.5304-1.4742-1.1643-0.95612-0.93857-1.2736-0.97748-1.7306-0.25174-0.43109 0.68454-0.89276 0.71545-1.955 0.15735-0.797-0.41885-2.0213-0.5134-2.9164-0.22028-0.85422 0.27969-2.0104 0.46579-2.5638 0.40909-0.55331-0.056732-1.4879-0.14703-2.0831-0.18881-0.89066-0.0625-1.1768-1.3118-1.5704-7.0803-0.36774-5.39-0.27496-7.1206 0.38458-7.5208 0.47171-0.28628 1.0805-0.40091 1.378-0.22028 0.29758 0.18057 1.173 0.13931 1.9229-0.094421 0.94782-0.29538 1.2329-0.76462 0.96143-1.6049-0.21487-0.66476-0.08139-1.4119 0.28842-1.6363 0.41263-0.25046 0.4505-0.97305 0.096161-1.8881-1.0943-2.826-1.5416-10.132-0.76916-12.43 0.4108-1.2222 0.86066-6.6276 1.0255-12.021 0.24734-8.0938 0.55319-10.277 1.6665-12.493 0.74179-1.4763 2.0611-4.5682 2.9484-6.86l1.6024-4.1538zm135.56 38.957c0.086548 0.006012 0.091797 0.20044 0.096191 0.5979 0.007813 0.73273 0.21796 0.71442 0.86523-0.15735 0.69818-0.94028 0.79718-0.48456 0.60895 2.8007-0.20325 3.5444-0.052734 4.1197 1.5063 5.5383 1.4718 1.3394 1.7305 2.1315 1.7305 5.2866 0 4.1719-1.7939 11.22-4.4226 17.307l-1.7627 4.0594-3.6534 0.2203c-2.0049 0.1217-4.1473 0.038055-4.7751-0.18881-0.62781-0.2269-1.5259-0.11008-1.9871 0.25177-0.46106 0.36182-0.83319 0.41043-0.83319 0.094391-6.1e-5 -0.31604-3.7175-0.56537-8.2363-0.53494-4.519 0.030426-10.705-0.077332-13.749-0.25177-5.4941-0.31485-5.5123-0.33133-5.5123-2.1083 0-1.489 1.7637-4.5928 3.365-5.916 0.86652-0.71591 0.6474-6.3681-0.32044-8.1502-0.56152-1.0338-0.84845-2.1684-0.60889-2.5489 0.23944-0.38049 0.1308-0.51825-0.25641-0.2832-0.60071 0.3645-1.8986-1.412-1.3781-1.8881 0.10089-0.092316 3.0654-0.34226 6.5698-0.56641 3.5045-0.22409 7.7302-0.59613 9.3901-0.81818 3.7305-0.49905 11.758-4.9325 16.12-8.9054 1.049-0.95548 1.3314-1.0024 2.019-0.18881 0.83899 0.99268 2.0856 1.3152 1.8588 0.47205-0.29224-1.0862 0.94928-3.4487 1.6024-3.0524 0.38354 0.23276 0.9599-0.004364 1.2819-0.50348 0.24518-0.3801 0.3941-0.57245 0.48071-0.56644zm-78.357 6.5768c0.3689 0 0.67297 0.29858 0.67297 0.66083 0 0.36221-0.30402 0.66083-0.67297 0.66083-0.36896 0-0.67304-0.29862-0.67304-0.66083 0-0.36218 0.30414-0.66083 0.67304-0.66083zm-471.55 1.9825h8.5248l-0.1923 2.8321c-0.093292 1.5551-0.61336 4.1444-1.1858 5.7586-0.57242 1.6143-1.0522 3.8562-1.0576 5.0034l-0.0321 2.1083-6.698 0.0315-6.698 0.0629v-2.2972c0-1.701 0.59132-2.9494 2.3075-4.8146 1.2773-1.3883 2.947-3.9096 3.6855-5.6013l1.346-3.0839zm470.59 0c0.16266 0 0.28839 0.29864 0.28839 0.66083 0 0.36218-0.31439 0.66083-0.70508 0.66083-0.39062 0-0.51636-0.29858-0.28839-0.66083 0.2279-0.36218 0.54236-0.66083 0.70508-0.66083zm18.844 1.0699l0.4807 1.7622c0.24927 0.97525 0.91217 1.7622 1.4742 1.7622 0.8949 0 8.3325 4.9445 8.3325 5.5384 0 0.12415-0.4762 1.5304-1.0576 3.1153-0.5813 1.585-1.1738 3.3272-1.314 3.8706-0.98181 3.805-1.5733 5.0227-2.7241 5.6013-0.76013 0.3822-1.1971 1.1624-1.0576 1.8566 0.21478 1.0685-0.21625 1.1552-3.9098 0.97549-4.2131-0.20502-6.4968-0.97757-4.8393-1.6363 0.46771-0.18585 1.212-0.69217 1.6665-1.1328 0.45453-0.44067 1.3414-0.98724 1.987-1.2272 0.64557-0.24002 1.1858-1.0919 1.1858-1.8881 0-0.79617 0.19049-1.2604 0.41656-1.0384 0.22614 0.22208 1.108-1.0052 1.9871-2.7062 1.892-3.6617 1.8682-3.3985 0.64093-3.3985-0.54034 0-1.3037 0.56576-1.6986 1.2902-0.8609 1.5794-2.8541 1.7219-4.0701 0.2832-0.71527-0.84625-0.72534-1.3015-0.031982-2.3915 0.59973-0.94305 0.62708-1.5241 0.12817-2.014-0.49884-0.48981-0.089233-1.0502 1.314-1.8881 1.0977-0.65549 1.9869-1.4891 1.9869-1.8566 0-0.89642-0.8894-0.85751-1.8588 0.094391-0.88959 0.87347-0.74713-0.52264 0.35254-3.3671l0.6089-1.6049zm-37.368 6.1677c0.39069 0 0.70508 0.29855 0.70508 0.66083 0 0.36218-0.12573 0.66083-0.28845 0.66083-0.16266 0-0.50916-0.29864-0.73706-0.66083-0.22803-0.36221-0.07019-0.66083 0.32044-0.66083zm-207.51 4.2482c-0.1489 0.034027-0.16422 0.1676-0.032043 0.37759 0.2254 0.35809 0.67841 0.66083 1.0256 0.66083 0.96475 0 0.74536-0.47479-0.41666-0.91257-0.1492-0.056244-0.27905-0.11044-0.38455-0.12585-0.079132-0.011566-0.14267-0.011383-0.19232 0zm219.14 1.9195c0.12164-0.052612 0.29626-0.017517 0.48077 0.094421 0.36884 0.22382 0.67297 0.53253 0.67297 0.69229 0 0.15973-0.30408 0.2832-0.67297 0.2832-0.36896 0-0.67297-0.30866-0.67297-0.69229 0-0.19183 0.070679-0.32501 0.1922-0.37762zm-32.08 2.0139c0.13416-0.02121 0.44647 0.033325 0.92941 0.15735 0.74777 0.19199 1.8944 0.98096 2.5638 1.7307 1.0346 1.1587 1.0564 1.3066 0.1282 0.97549-0.60065-0.21426-1.4869-0.046844-1.9549 0.37762-0.65881 0.5975-0.73926 0.57507-0.35254-0.094421 0.28537-0.49402 0.038696-1.4057-0.60892-2.1083-0.67096-0.72794-0.92859-1.0031-0.70505-1.0384zm-4.1342 2.6118c0.19351-0.034851 0.55542 0.11148 1.1217 0.40909 0.73779 0.3877 1.346 1.1372 1.346 1.6678 0 1.3748-1.1682 1.1875-1.987-0.31467-0.62994-1.1558-0.80328-1.7041-0.48074-1.7622zm8.4607 1.7937c0.23297 0.009399 0.43338 0.079407 0.54483 0.18881 0.22281 0.21884-0.19037 0.37472-0.89737 0.34613-0.78134-0.031586-0.91962-0.19882-0.38455-0.40909 0.24204-0.095123 0.50406-0.13525 0.73709-0.12585z"/>
</svg>
